 0
SECTION
 2
HEADER
 9
$ACADVER
 1
AC1009
 0
ENDSEC
 0
SECTION
 2
ENTITIES
 0
POLYLINE
 8
TITLE
 66
1
 70
1
 10
0.0
 20
0.0
 30
0.0
 0
VERTEX
 8
TITLE
 10
 -0.1000
 20
  0.1000
 30
0.0
 0
VERTEX
 8
TITLE
 10
  9.6000
 20
  0.1000
 30
0.0
 0
VERTEX
 8
TITLE
 10
  9.6000
 20
  7.3000
 30
0.0
 0
VERTEX
 8
TITLE
 10
 -0.1000
 20
  7.3000
 30
0.0
 0
SEQEND
 8
TITLE
 0
POLYLINE
 8
TITLE
 66
1
 70
1
 10
0.0
 20
0.0
 30
0.0
 0
VERTEX
 8
TITLE
 10
  0.0000
 20
  0.2000
 30
0.0
 0
VERTEX
 8
TITLE
 10
  9.5000
 20
  0.2000
 30
0.0
 0
VERTEX
 8
TITLE
 10
  9.5000
 20
  7.2000
 30
0.0
 0
VERTEX
 8
TITLE
 10
  0.0000
 20
  7.2000
 30
0.0
 0
SEQEND
 8
TITLE
 0
POLYLINE
 8
TITLE
 66
1
 10
0.0
 20
0.0
 30
0.0
 0
VERTEX
 8
TITLE
 10
  2.0600
 20
  0.2000
 30
0.0
 0
VERTEX
 8
TITLE
 10
  2.0600
 20
  0.1000
 30
0.0
 0
SEQEND
 8
TITLE
 0
POLYLINE
 8
TITLE
 66
1
 10
0.0
 20
0.0
 30
0.0
 0
VERTEX
 8
TITLE
 10
  2.0600
 20
  7.2000
 30
0.0
 0
VERTEX
 8
TITLE
 10
  2.0600
 20
  7.3000
 30
0.0
 0
SEQEND
 8
TITLE
 0
POLYLINE
 8
TITLE
 66
1
 10
0.0
 20
0.0
 30
0.0
 0
VERTEX
 8
TITLE
 10
  3.9200
 20
  0.2000
 30
0.0
 0
VERTEX
 8
TITLE
 10
  3.9200
 20
  0.1000
 30
0.0
 0
SEQEND
 8
TITLE
 0
POLYLINE
 8
TITLE
 66
1
 10
0.0
 20
0.0
 30
0.0
 0
VERTEX
 8
TITLE
 10
  3.9200
 20
  7.2000
 30
0.0
 0
VERTEX
 8
TITLE
 10
  3.9200
 20
  7.3000
 30
0.0
 0
SEQEND
 8
TITLE
 0
POLYLINE
 8
TITLE
 66
1
 10
0.0
 20
0.0
 30
0.0
 0
VERTEX
 8
TITLE
 10
  5.7800
 20
  0.2000
 30
0.0
 0
VERTEX
 8
TITLE
 10
  5.7800
 20
  0.1000
 30
0.0
 0
SEQEND
 8
TITLE
 0
POLYLINE
 8
TITLE
 66
1
 10
0.0
 20
0.0
 30
0.0
 0
VERTEX
 8
TITLE
 10
  5.7800
 20
  7.2000
 30
0.0
 0
VERTEX
 8
TITLE
 10
  5.7800
 20
  7.3000
 30
0.0
 0
SEQEND
 8
TITLE
 0
POLYLINE
 8
TITLE
 66
1
 10
0.0
 20
0.0
 30
0.0
 0
VERTEX
 8
TITLE
 10
  7.6400
 20
  0.2000
 30
0.0
 0
VERTEX
 8
TITLE
 10
  7.6400
 20
  0.1000
 30
0.0
 0
SEQEND
 8
TITLE
 0
POLYLINE
 8
TITLE
 66
1
 10
0.0
 20
0.0
 30
0.0
 0
VERTEX
 8
TITLE
 10
  7.6400
 20
  7.2000
 30
0.0
 0
VERTEX
 8
TITLE
 10
  7.6400
 20
  7.3000
 30
0.0
 0
SEQEND
 8
TITLE
 0
TEXT
 8
TITLE
 10
  1.1300
 20
  0.1200
 30
0.0
 40
  0.0500
 1
5
 0
TEXT
 8
TITLE
 10
  1.1300
 20
  7.2200
 30
0.0
 40
  0.0500
 1
5
 0
TEXT
 8
TITLE
 10
  2.9900
 20
  0.1200
 30
0.0
 40
  0.0500
 1
4
 0
TEXT
 8
TITLE
 10
  2.9900
 20
  7.2200
 30
0.0
 40
  0.0500
 1
4
 0
TEXT
 8
TITLE
 10
  4.8500
 20
  0.1200
 30
0.0
 40
  0.0500
 1
3
 0
TEXT
 8
TITLE
 10
  4.8500
 20
  7.2200
 30
0.0
 40
  0.0500
 1
3
 0
TEXT
 8
TITLE
 10
  6.7100
 20
  0.1200
 30
0.0
 40
  0.0500
 1
2
 0
TEXT
 8
TITLE
 10
  6.7100
 20
  7.2200
 30
0.0
 40
  0.0500
 1
2
 0
TEXT
 8
TITLE
 10
  8.5700
 20
  0.1200
 30
0.0
 40
  0.0500
 1
1
 0
TEXT
 8
TITLE
 10
  8.5700
 20
  7.2200
 30
0.0
 40
  0.0500
 1
1
 0
POLYLINE
 8
TITLE
 66
1
 10
0.0
 20
0.0
 30
0.0
 0
VERTEX
 8
TITLE
 10
 -0.1000
 20
  5.3000
 30
0.0
 0
VERTEX
 8
TITLE
 10
  0.0000
 20
  5.3000
 30
0.0
 0
SEQEND
 8
TITLE
 0
POLYLINE
 8
TITLE
 66
1
 10
0.0
 20
0.0
 30
0.0
 0
VERTEX
 8
TITLE
 10
  9.5000
 20
  5.3000
 30
0.0
 0
VERTEX
 8
TITLE
 10
  9.6000
 20
  5.3000
 30
0.0
 0
SEQEND
 8
TITLE
 0
SOLID
 8
TITLE
 10
  0.0000
 20
  3.6000
 30
0.0
 11
 -0.0500
 21
  3.6200
 31
0.0
 12
 -0.0500
 22
  3.5800
 32
0.0
 13
 -0.0500
 23
  3.6000
 33
0.0
 0
SOLID
 8
TITLE
 10
  9.5000
 20
  3.6000
 30
0.0
 11
  9.5500
 21
  3.6200
 31
0.0
 12
  9.5500
 22
  3.5800
 32
0.0
 13
  9.5500
 23
  3.6000
 33
0.0
 0
POLYLINE
 8
TITLE
 66
1
 10
0.0
 20
0.0
 30
0.0
 0
VERTEX
 8
TITLE
 10
 -0.1000
 20
  3.6000
 30
0.0
 0
VERTEX
 8
TITLE
 10
  0.0000
 20
  3.6000
 30
0.0
 0
SEQEND
 8
TITLE
 0
POLYLINE
 8
TITLE
 66
1
 10
0.0
 20
0.0
 30
0.0
 0
VERTEX
 8
TITLE
 10
  9.5000
 20
  3.6000
 30
0.0
 0
VERTEX
 8
TITLE
 10
  9.6000
 20
  3.6000
 30
0.0
 0
SEQEND
 8
TITLE
 0
SOLID
 8
TITLE
 10
  0.0000
 20
  3.6000
 30
0.0
 11
 -0.0500
 21
  3.6200
 31
0.0
 12
 -0.0500
 22
  3.5800
 32
0.0
 13
 -0.0500
 23
  3.6000
 33
0.0
 0
SOLID
 8
TITLE
 10
  9.5000
 20
  3.6000
 30
0.0
 11
  9.5500
 21
  3.6200
 31
0.0
 12
  9.5500
 22
  3.5800
 32
0.0
 13
  9.5500
 23
  3.6000
 33
0.0
 0
POLYLINE
 8
TITLE
 66
1
 10
0.0
 20
0.0
 30
0.0
 0
VERTEX
 8
TITLE
 10
 -0.1000
 20
  1.9000
 30
0.0
 0
VERTEX
 8
TITLE
 10
  0.0000
 20
  1.9000
 30
0.0
 0
SEQEND
 8
TITLE
 0
POLYLINE
 8
TITLE
 66
1
 10
0.0
 20
0.0
 30
0.0
 0
VERTEX
 8
TITLE
 10
  9.5000
 20
  1.9000
 30
0.0
 0
VERTEX
 8
TITLE
 10
  9.6000
 20
  1.9000
 30
0.0
 0
SEQEND
 8
TITLE
 0
SOLID
 8
TITLE
 10
  0.0000
 20
  3.6000
 30
0.0
 11
 -0.0500
 21
  3.6200
 31
0.0
 12
 -0.0500
 22
  3.5800
 32
0.0
 13
 -0.0500
 23
  3.6000
 33
0.0
 0
SOLID
 8
TITLE
 10
  9.5000
 20
  3.6000
 30
0.0
 11
  9.5500
 21
  3.6200
 31
0.0
 12
  9.5500
 22
  3.5800
 32
0.0
 13
  9.5500
 23
  3.6000
 33
0.0
 0
TEXT
 8
TITLE
 10
 -0.0800
 20
  6.1500
 30
0.0
 40
  0.0500
 1
D
 0
TEXT
 8
TITLE
 10
  9.5200
 20
  6.1500
 30
0.0
 40
  0.0500
 1
D
 0
TEXT
 8
TITLE
 10
 -0.0800
 20
  4.4500
 30
0.0
 40
  0.0500
 1
C
 0
TEXT
 8
TITLE
 10
  9.5200
 20
  4.4500
 30
0.0
 40
  0.0500
 1
C
 0
TEXT
 8
TITLE
 10
 -0.0800
 20
  2.7500
 30
0.0
 40
  0.0500
 1
B
 0
TEXT
 8
TITLE
 10
  9.5200
 20
  2.7500
 30
0.0
 40
  0.0500
 1
B
 0
TEXT
 8
TITLE
 10
 -0.0800
 20
  1.0500
 30
0.0
 40
  0.0500
 1
A
 0
TEXT
 8
TITLE
 10
  9.5200
 20
  1.0500
 30
0.0
 40
  0.0500
 1
A
 0
TEXT
 8
TITLE
 10
  6.3000
 20
  0.4186
 30
0.0
 40
  0.0514
 1
<Doc>
 0
TEXT
 8
TITLE
 10
  9.3000
 20
  0.4186
 30
0.0
 40
  0.0514
 1
<RevCode>
 0
TEXT
 8
TITLE
 10
  6.3000
 20
  0.7186
 30
0.0
 40
  0.0514
 1
<Title>
 0
TEXT
 8
TITLE
 10
  6.0000
 20
  0.4186
 30
0.0
 40
  0.0514
 1
A
 0
TEXT
 8
TITLE
 10
  8.4000
 20
  0.2186
 30
0.0
 40
  0.0514
 1
1
 0
TEXT
 8
TITLE
 10
  9.0000
 20
  0.2186
 30
0.0
 40
  0.0514
 1
1
 0
TEXT
 8
TITLE
 10
  6.4200
 20
  0.2186
 30
0.0
 40
  0.0514
 1
Saturday, August 24, 2024
 0
TEXT
 8
PARTTEXT
 10
  5.9000
 20
  0.8186
 30
0.0
 40
  0.0514
 1
Title
 0
TEXT
 8
PARTTEXT
 10
  5.9000
 20
  0.5186
 30
0.0
 40
  0.0514
 1
Size
 0
TEXT
 8
PARTTEXT
 10
  6.3000
 20
  0.5186
 30
0.0
 40
  0.0514
 1
Document Number
 0
TEXT
 8
PARTTEXT
 10
  9.2000
 20
  0.5186
 30
0.0
 40
  0.0514
 1
Rev
 0
TEXT
 8
PARTTEXT
 10
  5.9000
 20
  0.2186
 30
0.0
 40
  0.0514
 1
Date:
 0
TEXT
 8
PARTTEXT
 10
  7.9000
 20
  0.2186
 30
0.0
 40
  0.0514
 1
Sheet
 0
POLYLINE
 8
TITLE
 66
1
 70
1
 10
0.0
 20
0.0
 30
0.0
 0
VERTEX
 8
TITLE
 10
  5.9000
 20
  1.1000
 30
0.0
 0
VERTEX
 8
TITLE
 10
  9.5000
 20
  1.1000
 30
0.0
 0
VERTEX
 8
TITLE
 10
  9.5000
 20
  0.9000
 30
0.0
 0
VERTEX
 8
TITLE
 10
  5.9000
 20
  0.9000
 30
0.0
 0
SEQEND
 8
TITLE
 0
POLYLINE
 8
TITLE
 66
1
 70
1
 10
0.0
 20
0.0
 30
0.0
 0
VERTEX
 8
TITLE
 10
  5.9000
 20
  0.9000
 30
0.0
 0
VERTEX
 8
TITLE
 10
  9.5000
 20
  0.9000
 30
0.0
 0
VERTEX
 8
TITLE
 10
  9.5000
 20
  0.6000
 30
0.0
 0
VERTEX
 8
TITLE
 10
  5.9000
 20
  0.6000
 30
0.0
 0
SEQEND
 8
TITLE
 0
POLYLINE
 8
TITLE
 66
1
 70
1
 10
0.0
 20
0.0
 30
0.0
 0
VERTEX
 8
TITLE
 10
  5.9000
 20
  0.6000
 30
0.0
 0
VERTEX
 8
TITLE
 10
  6.2000
 20
  0.6000
 30
0.0
 0
VERTEX
 8
TITLE
 10
  6.2000
 20
  0.3000
 30
0.0
 0
VERTEX
 8
TITLE
 10
  5.9000
 20
  0.3000
 30
0.0
 0
SEQEND
 8
TITLE
 0
POLYLINE
 8
TITLE
 66
1
 70
1
 10
0.0
 20
0.0
 30
0.0
 0
VERTEX
 8
TITLE
 10
  6.2000
 20
  0.6000
 30
0.0
 0
VERTEX
 8
TITLE
 10
  9.2000
 20
  0.6000
 30
0.0
 0
VERTEX
 8
TITLE
 10
  9.2000
 20
  0.3000
 30
0.0
 0
VERTEX
 8
TITLE
 10
  6.2000
 20
  0.3000
 30
0.0
 0
SEQEND
 8
TITLE
 0
POLYLINE
 8
TITLE
 66
1
 70
1
 10
0.0
 20
0.0
 30
0.0
 0
VERTEX
 8
TITLE
 10
  9.2000
 20
  0.6000
 30
0.0
 0
VERTEX
 8
TITLE
 10
  9.5000
 20
  0.6000
 30
0.0
 0
VERTEX
 8
TITLE
 10
  9.5000
 20
  0.3000
 30
0.0
 0
VERTEX
 8
TITLE
 10
  9.2000
 20
  0.3000
 30
0.0
 0
SEQEND
 8
TITLE
 0
POLYLINE
 8
TITLE
 66
1
 70
1
 10
0.0
 20
0.0
 30
0.0
 0
VERTEX
 8
TITLE
 10
  5.9000
 20
  0.3000
 30
0.0
 0
VERTEX
 8
TITLE
 10
  7.9000
 20
  0.3000
 30
0.0
 0
VERTEX
 8
TITLE
 10
  7.9000
 20
  0.2000
 30
0.0
 0
VERTEX
 8
TITLE
 10
  5.9000
 20
  0.2000
 30
0.0
 0
SEQEND
 8
TITLE
 0
POLYLINE
 8
TITLE
 66
1
 70
1
 10
0.0
 20
0.0
 30
0.0
 0
VERTEX
 8
TITLE
 10
  7.9000
 20
  0.3000
 30
0.0
 0
VERTEX
 8
TITLE
 10
  9.5000
 20
  0.3000
 30
0.0
 0
VERTEX
 8
TITLE
 10
  9.5000
 20
  0.2000
 30
0.0
 0
VERTEX
 8
TITLE
 10
  7.9000
 20
  0.2000
 30
0.0
 0
SEQEND
 8
TITLE
 0
TEXT
 8
PARTTEXT
 10
  8.7000
 20
  0.2186
 30
0.0
 40
  0.0514
 1
of
 0
TEXT
 8
PARTTEXT
 10
  4.8000
 20
  6.4686
 30
0.0
 40
  0.0514
 1
V4
 0
TEXT
 8
PARTTEXT
 10
  4.8000
 20
  6.1086
 30
0.0
 40
  0.0514
 1
1Vdc
 0
TEXT
 8
PARTTEXT
 10
  4.8000
 20
  6.3686
 30
0.0
 40
  0.0514
 1
44.32nW
 0
TEXT
 8
PARTS
 10
  5.1000
 20
  6.2186
 30
0.0
 40
  0.0514
 1
44.32nA
 0
TEXT
 8
PARTS
 10
  4.7000
 20
  6.2186
 30
0.0
 40
  0.0514
 1
<BiasValue Current>
 0
LINE
 8
PARTS
 10
  4.7000
 20
  6.3000
 30
0.0
 11
  4.8000
 21
  6.3000
 31
0.0
 0
POLYLINE
 8
PARTS
 66
1
 10
0.0
 20
0.0
 30
0.0
 0
VERTEX
 8
PARTS
 10
  4.9300
 20
  6.3500
 30
0.0
 0
VERTEX
 8
PARTS
 10
  4.9300
 20
  6.2500
 30
0.0
 0
SEQEND
 8
PARTS
 0
POLYLINE
 8
PARTS
 66
1
 10
0.0
 20
0.0
 30
0.0
 0
VERTEX
 8
PARTS
 10
  4.9000
 20
  6.2000
 30
0.0
 0
VERTEX
 8
PARTS
 10
  4.9000
 20
  6.4000
 30
0.0
 0
SEQEND
 8
PARTS
 0
POLYLINE
 8
PARTS
 66
1
 10
0.0
 20
0.0
 30
0.0
 0
VERTEX
 8
PARTS
 10
  4.8600
 20
  6.3500
 30
0.0
 0
VERTEX
 8
PARTS
 10
  4.8600
 20
  6.2500
 30
0.0
 0
SEQEND
 8
PARTS
 0
POLYLINE
 8
PARTS
 66
1
 10
0.0
 20
0.0
 30
0.0
 0
VERTEX
 8
PARTS
 10
  5.0100
 20
  6.3000
 30
0.0
 0
VERTEX
 8
PARTS
 10
  4.9600
 20
  6.3000
 30
0.0
 0
SEQEND
 8
PARTS
 0
POLYLINE
 8
PARTS
 66
1
 10
0.0
 20
0.0
 30
0.0
 0
VERTEX
 8
PARTS
 10
  4.8000
 20
  6.3000
 30
0.0
 0
VERTEX
 8
PARTS
 10
  4.8600
 20
  6.3000
 30
0.0
 0
SEQEND
 8
PARTS
 0
POLYLINE
 8
PARTS
 66
1
 10
0.0
 20
0.0
 30
0.0
 0
VERTEX
 8
PARTS
 10
  4.9600
 20
  6.4000
 30
0.0
 0
VERTEX
 8
PARTS
 10
  4.9600
 20
  6.2000
 30
0.0
 0
SEQEND
 8
PARTS
 0
POLYLINE
 8
PARTS
 66
1
 10
0.0
 20
0.0
 30
0.0
 0
VERTEX
 8
PARTS
 10
  5.0000
 20
  6.3000
 30
0.0
 0
VERTEX
 8
PARTS
 10
  5.1000
 20
  6.3000
 30
0.0
 0
SEQEND
 8
PARTS
 0
POLYLINE
 8
PARTS
 66
1
 10
0.0
 20
0.0
 30
0.0
 0
VERTEX
 8
PARTS
 10
  5.0200
 20
  6.3700
 30
0.0
 0
VERTEX
 8
PARTS
 10
  5.0000
 20
  6.3700
 30
0.0
 0
SEQEND
 8
PARTS
 0
POLYLINE
 8
PARTS
 66
1
 10
0.0
 20
0.0
 30
0.0
 0
VERTEX
 8
PARTS
 10
  5.0100
 20
  6.3800
 30
0.0
 0
VERTEX
 8
PARTS
 10
  5.0100
 20
  6.3600
 30
0.0
 0
SEQEND
 8
PARTS
 0
POLYLINE
 8
PARTS
 66
1
 10
0.0
 20
0.0
 30
0.0
 0
VERTEX
 8
PARTS
 10
  4.8200
 20
  6.3800
 30
0.0
 0
VERTEX
 8
PARTS
 10
  4.8200
 20
  6.3600
 30
0.0
 0
SEQEND
 8
PARTS
 0
TEXT
 8
PARTTEXT
 10
  4.6500
 20
  5.4186
 30
0.0
 40
  0.0514
 1
R5
 0
TEXT
 8
PARTTEXT
 10
  4.6500
 20
  5.1686
 30
0.0
 40
  0.0514
 1
1k
 0
TEXT
 8
PARTTEXT
 10
  4.6500
 20
  5.3186
 30
0.0
 40
  0.0514
 1
250.0uW
 0
TEXT
 8
PARTS
 10
  4.9000
 20
  5.2186
 30
0.0
 40
  0.0514
 1
500.0uA
 0
LINE
 8
PARTS
 10
  4.9000
 20
  5.3000
 30
0.0
 11
  4.8000
 21
  5.3000
 31
0.0
 0
TEXT
 8
PARTS
 10
  4.8600
 20
  5.3300
 30
0.0
 40
  0.0500
 1
2
 0
TEXT
 8
PARTS
 10
  4.5000
 20
  5.2186
 30
0.0
 40
  0.0514
 1
<BiasValue Current>
 0
LINE
 8
PARTS
 10
  4.5000
 20
  5.3000
 30
0.0
 11
  4.6000
 21
  5.3000
 31
0.0
 0
TEXT
 8
PARTS
 10
  4.5000
 20
  5.3300
 30
0.0
 40
  0.0500
 1
1
 0
POLYLINE
 8
PARTS
 66
1
 10
0.0
 20
0.0
 30
0.0
 0
VERTEX
 8
PARTS
 10
  4.7200
 20
  5.2600
 30
0.0
 0
VERTEX
 8
PARTS
 10
  4.7500
 20
  5.3400
 30
0.0
 0
SEQEND
 8
PARTS
 0
POLYLINE
 8
PARTS
 66
1
 10
0.0
 20
0.0
 30
0.0
 0
VERTEX
 8
PARTS
 10
  4.6100
 20
  5.3000
 30
0.0
 0
VERTEX
 8
PARTS
 10
  4.6300
 20
  5.3400
 30
0.0
 0
SEQEND
 8
PARTS
 0
POLYLINE
 8
PARTS
 66
1
 10
0.0
 20
0.0
 30
0.0
 0
VERTEX
 8
PARTS
 10
  4.6300
 20
  5.3400
 30
0.0
 0
VERTEX
 8
PARTS
 10
  4.6600
 20
  5.2600
 30
0.0
 0
SEQEND
 8
PARTS
 0
POLYLINE
 8
PARTS
 66
1
 10
0.0
 20
0.0
 30
0.0
 0
VERTEX
 8
PARTS
 10
  4.6600
 20
  5.2600
 30
0.0
 0
VERTEX
 8
PARTS
 10
  4.6900
 20
  5.3400
 30
0.0
 0
SEQEND
 8
PARTS
 0
POLYLINE
 8
PARTS
 66
1
 10
0.0
 20
0.0
 30
0.0
 0
VERTEX
 8
PARTS
 10
  4.6900
 20
  5.3400
 30
0.0
 0
VERTEX
 8
PARTS
 10
  4.7200
 20
  5.2600
 30
0.0
 0
SEQEND
 8
PARTS
 0
POLYLINE
 8
PARTS
 66
1
 10
0.0
 20
0.0
 30
0.0
 0
VERTEX
 8
PARTS
 10
  4.6000
 20
  5.3000
 30
0.0
 0
VERTEX
 8
PARTS
 10
  4.6100
 20
  5.3000
 30
0.0
 0
SEQEND
 8
PARTS
 0
POLYLINE
 8
PARTS
 66
1
 10
0.0
 20
0.0
 30
0.0
 0
VERTEX
 8
PARTS
 10
  4.7500
 20
  5.3400
 30
0.0
 0
VERTEX
 8
PARTS
 10
  4.7800
 20
  5.2600
 30
0.0
 0
SEQEND
 8
PARTS
 0
POLYLINE
 8
PARTS
 66
1
 10
0.0
 20
0.0
 30
0.0
 0
VERTEX
 8
PARTS
 10
  4.7800
 20
  5.2600
 30
0.0
 0
VERTEX
 8
PARTS
 10
  4.8000
 20
  5.3000
 30
0.0
 0
SEQEND
 8
PARTS
 0
TEXT
 8
PARTTEXT
 10
  2.8500
 20
  5.2186
 30
0.0
 40
  0.0514
 1
R4
 0
TEXT
 8
PARTTEXT
 10
  2.8500
 20
  4.9686
 30
0.0
 40
  0.0514
 1
1k
 0
TEXT
 8
PARTTEXT
 10
  2.8500
 20
  5.1186
 30
0.0
 40
  0.0514
 1
249.6uW
 0
TEXT
 8
PARTS
 10
  3.1000
 20
  5.0186
 30
0.0
 40
  0.0514
 1
499.6uA
 0
LINE
 8
PARTS
 10
  3.1000
 20
  5.1000
 30
0.0
 11
  3.0000
 21
  5.1000
 31
0.0
 0
TEXT
 8
PARTS
 10
  3.0600
 20
  5.1300
 30
0.0
 40
  0.0500
 1
2
 0
LINE
 8
PARTS
 10
  2.7000
 20
  5.1000
 30
0.0
 11
  2.8000
 21
  5.1000
 31
0.0
 0
TEXT
 8
PARTS
 10
  2.7000
 20
  5.1300
 30
0.0
 40
  0.0500
 1
1
 0
POLYLINE
 8
PARTS
 66
1
 10
0.0
 20
0.0
 30
0.0
 0
VERTEX
 8
PARTS
 10
  2.9200
 20
  5.0600
 30
0.0
 0
VERTEX
 8
PARTS
 10
  2.9500
 20
  5.1400
 30
0.0
 0
SEQEND
 8
PARTS
 0
POLYLINE
 8
PARTS
 66
1
 10
0.0
 20
0.0
 30
0.0
 0
VERTEX
 8
PARTS
 10
  2.8100
 20
  5.1000
 30
0.0
 0
VERTEX
 8
PARTS
 10
  2.8300
 20
  5.1400
 30
0.0
 0
SEQEND
 8
PARTS
 0
POLYLINE
 8
PARTS
 66
1
 10
0.0
 20
0.0
 30
0.0
 0
VERTEX
 8
PARTS
 10
  2.8300
 20
  5.1400
 30
0.0
 0
VERTEX
 8
PARTS
 10
  2.8600
 20
  5.0600
 30
0.0
 0
SEQEND
 8
PARTS
 0
POLYLINE
 8
PARTS
 66
1
 10
0.0
 20
0.0
 30
0.0
 0
VERTEX
 8
PARTS
 10
  2.8600
 20
  5.0600
 30
0.0
 0
VERTEX
 8
PARTS
 10
  2.8900
 20
  5.1400
 30
0.0
 0
SEQEND
 8
PARTS
 0
POLYLINE
 8
PARTS
 66
1
 10
0.0
 20
0.0
 30
0.0
 0
VERTEX
 8
PARTS
 10
  2.8900
 20
  5.1400
 30
0.0
 0
VERTEX
 8
PARTS
 10
  2.9200
 20
  5.0600
 30
0.0
 0
SEQEND
 8
PARTS
 0
POLYLINE
 8
PARTS
 66
1
 10
0.0
 20
0.0
 30
0.0
 0
VERTEX
 8
PARTS
 10
  2.8000
 20
  5.1000
 30
0.0
 0
VERTEX
 8
PARTS
 10
  2.8100
 20
  5.1000
 30
0.0
 0
SEQEND
 8
PARTS
 0
POLYLINE
 8
PARTS
 66
1
 10
0.0
 20
0.0
 30
0.0
 0
VERTEX
 8
PARTS
 10
  2.9500
 20
  5.1400
 30
0.0
 0
VERTEX
 8
PARTS
 10
  2.9800
 20
  5.0600
 30
0.0
 0
SEQEND
 8
PARTS
 0
POLYLINE
 8
PARTS
 66
1
 10
0.0
 20
0.0
 30
0.0
 0
VERTEX
 8
PARTS
 10
  2.9800
 20
  5.0600
 30
0.0
 0
VERTEX
 8
PARTS
 10
  3.0000
 20
  5.1000
 30
0.0
 0
SEQEND
 8
PARTS
 0
TEXT
 8
PARTTEXT
 10
  2.8000
 20
  6.4686
 30
0.0
 40
  0.0514
 1
V3
 0
TEXT
 8
PARTTEXT
 10
  2.8000
 20
  6.1086
 30
0.0
 40
  0.0514
 1
500mVdc
 0
TEXT
 8
PARTTEXT
 10
  2.8000
 20
  6.3686
 30
0.0
 40
  0.0514
 1
22.27nW
 0
TEXT
 8
PARTS
 10
  3.1000
 20
  6.2186
 30
0.0
 40
  0.0514
 1
44.53nA
 0
LINE
 8
PARTS
 10
  2.7000
 20
  6.3000
 30
0.0
 11
  2.8000
 21
  6.3000
 31
0.0
 0
POLYLINE
 8
PARTS
 66
1
 10
0.0
 20
0.0
 30
0.0
 0
VERTEX
 8
PARTS
 10
  2.9300
 20
  6.3500
 30
0.0
 0
VERTEX
 8
PARTS
 10
  2.9300
 20
  6.2500
 30
0.0
 0
SEQEND
 8
PARTS
 0
POLYLINE
 8
PARTS
 66
1
 10
0.0
 20
0.0
 30
0.0
 0
VERTEX
 8
PARTS
 10
  2.9000
 20
  6.2000
 30
0.0
 0
VERTEX
 8
PARTS
 10
  2.9000
 20
  6.4000
 30
0.0
 0
SEQEND
 8
PARTS
 0
POLYLINE
 8
PARTS
 66
1
 10
0.0
 20
0.0
 30
0.0
 0
VERTEX
 8
PARTS
 10
  2.8600
 20
  6.3500
 30
0.0
 0
VERTEX
 8
PARTS
 10
  2.8600
 20
  6.2500
 30
0.0
 0
SEQEND
 8
PARTS
 0
POLYLINE
 8
PARTS
 66
1
 10
0.0
 20
0.0
 30
0.0
 0
VERTEX
 8
PARTS
 10
  3.0100
 20
  6.3000
 30
0.0
 0
VERTEX
 8
PARTS
 10
  2.9600
 20
  6.3000
 30
0.0
 0
SEQEND
 8
PARTS
 0
POLYLINE
 8
PARTS
 66
1
 10
0.0
 20
0.0
 30
0.0
 0
VERTEX
 8
PARTS
 10
  2.8000
 20
  6.3000
 30
0.0
 0
VERTEX
 8
PARTS
 10
  2.8600
 20
  6.3000
 30
0.0
 0
SEQEND
 8
PARTS
 0
POLYLINE
 8
PARTS
 66
1
 10
0.0
 20
0.0
 30
0.0
 0
VERTEX
 8
PARTS
 10
  2.9600
 20
  6.4000
 30
0.0
 0
VERTEX
 8
PARTS
 10
  2.9600
 20
  6.2000
 30
0.0
 0
SEQEND
 8
PARTS
 0
POLYLINE
 8
PARTS
 66
1
 10
0.0
 20
0.0
 30
0.0
 0
VERTEX
 8
PARTS
 10
  3.0000
 20
  6.3000
 30
0.0
 0
VERTEX
 8
PARTS
 10
  3.1000
 20
  6.3000
 30
0.0
 0
SEQEND
 8
PARTS
 0
POLYLINE
 8
PARTS
 66
1
 10
0.0
 20
0.0
 30
0.0
 0
VERTEX
 8
PARTS
 10
  3.0200
 20
  6.3700
 30
0.0
 0
VERTEX
 8
PARTS
 10
  3.0000
 20
  6.3700
 30
0.0
 0
SEQEND
 8
PARTS
 0
POLYLINE
 8
PARTS
 66
1
 10
0.0
 20
0.0
 30
0.0
 0
VERTEX
 8
PARTS
 10
  3.0100
 20
  6.3800
 30
0.0
 0
VERTEX
 8
PARTS
 10
  3.0100
 20
  6.3600
 30
0.0
 0
SEQEND
 8
PARTS
 0
POLYLINE
 8
PARTS
 66
1
 10
0.0
 20
0.0
 30
0.0
 0
VERTEX
 8
PARTS
 10
  2.8200
 20
  6.3800
 30
0.0
 0
VERTEX
 8
PARTS
 10
  2.8200
 20
  6.3600
 30
0.0
 0
SEQEND
 8
PARTS
 0
TEXT
 8
PARTTEXT
 10
  5.4400
 20
  5.8186
 30
0.0
 40
  0.0514
 1
U1B
 0
TEXT
 8
PARTTEXT
 10
  5.1400
 20
  5.1186
 30
0.0
 40
  0.0514
 1
LM324
 0
TEXT
 8
PARTTEXT
 10
  5.4400
 20
  5.7186
 30
0.0
 40
  0.0514
 1
52.38mW
 0
TEXT
 8
PARTS
 10
  5.3000
 20
  5.6186
 30
0.0
 40
  0.0514
 1
-44.32nA
 0
LINE
 8
PARTS
 10
  5.3000
 20
  5.7000
 30
0.0
 11
  5.4000
 21
  5.7000
 31
0.0
 0
TEXT
 8
PARTS
 10
  5.4900
 20
  5.6750
 30
0.0
 40
  0.0500
 1
+
 0
TEXT
 8
PARTS
 10
  5.3000
 20
  5.7300
 30
0.0
 40
  0.0500
 1
5
 0
TEXT
 8
PARTS
 10
  5.3000
 20
  5.2186
 30
0.0
 40
  0.0514
 1
-44.92nA
 0
LINE
 8
PARTS
 10
  5.3000
 20
  5.3000
 30
0.0
 11
  5.4000
 21
  5.3000
 31
0.0
 0
TEXT
 8
PARTS
 10
  5.4900
 20
  5.2750
 30
0.0
 40
  0.0500
 1
-
 0
TEXT
 8
PARTS
 10
  5.3000
 20
  5.3300
 30
0.0
 40
  0.0500
 1
6
 0
TEXT
 8
PARTS
 10
  5.7000
 20
  5.7186
 30
0.0
 40
  0.0514
 1
3.220mA
 0
TEXT
 8
PARTS
 10
  5.7250
 20
  5.6300
 30
0.0
 40
  0.0500
 50
 90.0000
 1
V+
 0
TEXT
 8
PARTS
 10
  5.6700
 20
  5.8600
 30
0.0
 40
  0.0500
 50
 90.0000
 1
4
 0
TEXT
 8
PARTS
 10
  5.7000
 20
  5.1186
 30
0.0
 40
  0.0514
 1
-2.218mA
 0
TEXT
 8
PARTS
 10
  5.7250
 20
  5.2900
 30
0.0
 40
  0.0500
 50
 90.0000
 1
V-
 0
TEXT
 8
PARTS
 10
  5.6700
 20
  5.0800
 30
0.0
 40
  0.0500
 50
 90.0000
 1
11
 0
TEXT
 8
PARTS
 10
  6.1000
 20
  5.4186
 30
0.0
 40
  0.0514
 1
-1.002mA
 0
LINE
 8
PARTS
 10
  6.1000
 20
  5.5000
 30
0.0
 11
  6.0000
 21
  5.5000
 31
0.0
 0
TEXT
 8
PARTS
 10
  5.7900
 20
  5.4750
 30
0.0
 40
  0.0500
 1
OUT
 0
TEXT
 8
PARTS
 10
  6.0600
 20
  5.5300
 30
0.0
 40
  0.0500
 1
7
 0
POLYLINE
 8
PARTS
 66
1
 10
0.0
 20
0.0
 30
0.0
 0
VERTEX
 8
PARTS
 10
  5.4000
 20
  5.2000
 30
0.0
 0
VERTEX
 8
PARTS
 10
  6.0000
 20
  5.5000
 30
0.0
 0
SEQEND
 8
PARTS
 0
POLYLINE
 8
PARTS
 66
1
 10
0.0
 20
0.0
 30
0.0
 0
VERTEX
 8
PARTS
 10
  6.0000
 20
  5.5000
 30
0.0
 0
VERTEX
 8
PARTS
 10
  5.4000
 20
  5.8000
 30
0.0
 0
SEQEND
 8
PARTS
 0
POLYLINE
 8
PARTS
 66
1
 10
0.0
 20
0.0
 30
0.0
 0
VERTEX
 8
PARTS
 10
  5.7000
 20
  5.7000
 30
0.0
 0
VERTEX
 8
PARTS
 10
  5.7000
 20
  5.6500
 30
0.0
 0
SEQEND
 8
PARTS
 0
POLYLINE
 8
PARTS
 66
1
 10
0.0
 20
0.0
 30
0.0
 0
VERTEX
 8
PARTS
 10
  5.7000
 20
  5.3000
 30
0.0
 0
VERTEX
 8
PARTS
 10
  5.7000
 20
  5.3500
 30
0.0
 0
SEQEND
 8
PARTS
 0
POLYLINE
 8
PARTS
 66
1
 10
0.0
 20
0.0
 30
0.0
 0
VERTEX
 8
PARTS
 10
  5.4000
 20
  5.8000
 30
0.0
 0
VERTEX
 8
PARTS
 10
  5.4000
 20
  5.2000
 30
0.0
 0
SEQEND
 8
PARTS
 0
POLYLINE
 8
PARTS
 66
1
 10
0.0
 20
0.0
 30
0.0
 0
VERTEX
 8
PARTS
 10
  5.7000
 20
  5.7000
 30
0.0
 0
VERTEX
 8
PARTS
 10
  5.7000
 20
  5.8000
 30
0.0
 0
SEQEND
 8
PARTS
 0
POLYLINE
 8
PARTS
 66
1
 10
0.0
 20
0.0
 30
0.0
 0
VERTEX
 8
PARTS
 10
  5.7000
 20
  5.3000
 30
0.0
 0
VERTEX
 8
PARTS
 10
  5.7000
 20
  5.2000
 30
0.0
 0
SEQEND
 8
PARTS
 0
TEXT
 8
PARTTEXT
 10
  5.6500
 20
  4.9186
 30
0.0
 40
  0.0514
 1
R3
 0
TEXT
 8
PARTTEXT
 10
  5.6500
 20
  4.6686
 30
0.0
 40
  0.0514
 1
1k
 0
TEXT
 8
PARTTEXT
 10
  5.6500
 20
  4.8186
 30
0.0
 40
  0.0514
 1
1.000mW
 0
TEXT
 8
PARTS
 10
  5.9000
 20
  4.7186
 30
0.0
 40
  0.0514
 1
1.000mA
 0
LINE
 8
PARTS
 10
  5.9000
 20
  4.8000
 30
0.0
 11
  5.8000
 21
  4.8000
 31
0.0
 0
TEXT
 8
PARTS
 10
  5.8600
 20
  4.8300
 30
0.0
 40
  0.0500
 1
2
 0
TEXT
 8
PARTS
 10
  5.5000
 20
  4.7186
 30
0.0
 40
  0.0514
 1
<BiasValue Current>
 0
LINE
 8
PARTS
 10
  5.5000
 20
  4.8000
 30
0.0
 11
  5.6000
 21
  4.8000
 31
0.0
 0
TEXT
 8
PARTS
 10
  5.5000
 20
  4.8300
 30
0.0
 40
  0.0500
 1
1
 0
POLYLINE
 8
PARTS
 66
1
 10
0.0
 20
0.0
 30
0.0
 0
VERTEX
 8
PARTS
 10
  5.7200
 20
  4.7600
 30
0.0
 0
VERTEX
 8
PARTS
 10
  5.7500
 20
  4.8400
 30
0.0
 0
SEQEND
 8
PARTS
 0
POLYLINE
 8
PARTS
 66
1
 10
0.0
 20
0.0
 30
0.0
 0
VERTEX
 8
PARTS
 10
  5.6100
 20
  4.8000
 30
0.0
 0
VERTEX
 8
PARTS
 10
  5.6300
 20
  4.8400
 30
0.0
 0
SEQEND
 8
PARTS
 0
POLYLINE
 8
PARTS
 66
1
 10
0.0
 20
0.0
 30
0.0
 0
VERTEX
 8
PARTS
 10
  5.6300
 20
  4.8400
 30
0.0
 0
VERTEX
 8
PARTS
 10
  5.6600
 20
  4.7600
 30
0.0
 0
SEQEND
 8
PARTS
 0
POLYLINE
 8
PARTS
 66
1
 10
0.0
 20
0.0
 30
0.0
 0
VERTEX
 8
PARTS
 10
  5.6600
 20
  4.7600
 30
0.0
 0
VERTEX
 8
PARTS
 10
  5.6900
 20
  4.8400
 30
0.0
 0
SEQEND
 8
PARTS
 0
POLYLINE
 8
PARTS
 66
1
 10
0.0
 20
0.0
 30
0.0
 0
VERTEX
 8
PARTS
 10
  5.6900
 20
  4.8400
 30
0.0
 0
VERTEX
 8
PARTS
 10
  5.7200
 20
  4.7600
 30
0.0
 0
SEQEND
 8
PARTS
 0
POLYLINE
 8
PARTS
 66
1
 10
0.0
 20
0.0
 30
0.0
 0
VERTEX
 8
PARTS
 10
  5.6000
 20
  4.8000
 30
0.0
 0
VERTEX
 8
PARTS
 10
  5.6100
 20
  4.8000
 30
0.0
 0
SEQEND
 8
PARTS
 0
POLYLINE
 8
PARTS
 66
1
 10
0.0
 20
0.0
 30
0.0
 0
VERTEX
 8
PARTS
 10
  5.7500
 20
  4.8400
 30
0.0
 0
VERTEX
 8
PARTS
 10
  5.7800
 20
  4.7600
 30
0.0
 0
SEQEND
 8
PARTS
 0
POLYLINE
 8
PARTS
 66
1
 10
0.0
 20
0.0
 30
0.0
 0
VERTEX
 8
PARTS
 10
  5.7800
 20
  4.7600
 30
0.0
 0
VERTEX
 8
PARTS
 10
  5.8000
 20
  4.8000
 30
0.0
 0
SEQEND
 8
PARTS
 0
TEXT
 8
PARTTEXT
 10
  3.7500
 20
  4.7186
 30
0.0
 40
  0.0514
 1
R2
 0
TEXT
 8
PARTTEXT
 10
  3.7500
 20
  4.4686
 30
0.0
 40
  0.0514
 1
1k
 0
TEXT
 8
PARTTEXT
 10
  3.7500
 20
  4.6186
 30
0.0
 40
  0.0514
 1
50.77pW
 0
TEXT
 8
PARTS
 10
  4.0000
 20
  4.5186
 30
0.0
 40
  0.0514
 1
<BiasValue Current>
 0
LINE
 8
PARTS
 10
  4.0000
 20
  4.6000
 30
0.0
 11
  3.9000
 21
  4.6000
 31
0.0
 0
TEXT
 8
PARTS
 10
  3.9600
 20
  4.6300
 30
0.0
 40
  0.0500
 1
2
 0
TEXT
 8
PARTS
 10
  3.6000
 20
  4.5186
 30
0.0
 40
  0.0514
 1
225.3nA
 0
LINE
 8
PARTS
 10
  3.6000
 20
  4.6000
 30
0.0
 11
  3.7000
 21
  4.6000
 31
0.0
 0
TEXT
 8
PARTS
 10
  3.6000
 20
  4.6300
 30
0.0
 40
  0.0500
 1
1
 0
POLYLINE
 8
PARTS
 66
1
 10
0.0
 20
0.0
 30
0.0
 0
VERTEX
 8
PARTS
 10
  3.8200
 20
  4.5600
 30
0.0
 0
VERTEX
 8
PARTS
 10
  3.8500
 20
  4.6400
 30
0.0
 0
SEQEND
 8
PARTS
 0
POLYLINE
 8
PARTS
 66
1
 10
0.0
 20
0.0
 30
0.0
 0
VERTEX
 8
PARTS
 10
  3.7100
 20
  4.6000
 30
0.0
 0
VERTEX
 8
PARTS
 10
  3.7300
 20
  4.6400
 30
0.0
 0
SEQEND
 8
PARTS
 0
POLYLINE
 8
PARTS
 66
1
 10
0.0
 20
0.0
 30
0.0
 0
VERTEX
 8
PARTS
 10
  3.7300
 20
  4.6400
 30
0.0
 0
VERTEX
 8
PARTS
 10
  3.7600
 20
  4.5600
 30
0.0
 0
SEQEND
 8
PARTS
 0
POLYLINE
 8
PARTS
 66
1
 10
0.0
 20
0.0
 30
0.0
 0
VERTEX
 8
PARTS
 10
  3.7600
 20
  4.5600
 30
0.0
 0
VERTEX
 8
PARTS
 10
  3.7900
 20
  4.6400
 30
0.0
 0
SEQEND
 8
PARTS
 0
POLYLINE
 8
PARTS
 66
1
 10
0.0
 20
0.0
 30
0.0
 0
VERTEX
 8
PARTS
 10
  3.7900
 20
  4.6400
 30
0.0
 0
VERTEX
 8
PARTS
 10
  3.8200
 20
  4.5600
 30
0.0
 0
SEQEND
 8
PARTS
 0
POLYLINE
 8
PARTS
 66
1
 10
0.0
 20
0.0
 30
0.0
 0
VERTEX
 8
PARTS
 10
  3.7000
 20
  4.6000
 30
0.0
 0
VERTEX
 8
PARTS
 10
  3.7100
 20
  4.6000
 30
0.0
 0
SEQEND
 8
PARTS
 0
POLYLINE
 8
PARTS
 66
1
 10
0.0
 20
0.0
 30
0.0
 0
VERTEX
 8
PARTS
 10
  3.8500
 20
  4.6400
 30
0.0
 0
VERTEX
 8
PARTS
 10
  3.8800
 20
  4.5600
 30
0.0
 0
SEQEND
 8
PARTS
 0
POLYLINE
 8
PARTS
 66
1
 10
0.0
 20
0.0
 30
0.0
 0
VERTEX
 8
PARTS
 10
  3.8800
 20
  4.5600
 30
0.0
 0
VERTEX
 8
PARTS
 10
  3.9000
 20
  4.6000
 30
0.0
 0
SEQEND
 8
PARTS
 0
TEXT
 8
PARTTEXT
 10
  7.4900
 20
  3.8886
 30
0.0
 40
  0.0514
 1
V2
 0
TEXT
 8
PARTTEXT
 10
  7.3900
 20
  4.2486
 30
0.0
 40
  0.0514
 1
10Vdc
 0
TEXT
 8
PARTTEXT
 10
  7.4900
 20
  3.7886
 30
0.0
 40
  0.0514
 1
-49.36mW
 0
TEXT
 8
PARTS
 10
  7.2000
 20
  4.0186
 30
0.0
 40
  0.0514
 1
4.936mA
 0
LINE
 8
PARTS
 10
  7.2000
 20
  4.1000
 30
0.0
 11
  7.3000
 21
  4.1000
 31
0.0
 0
POLYLINE
 8
PARTS
 66
1
 10
0.0
 20
0.0
 30
0.0
 0
VERTEX
 8
PARTS
 10
  7.4300
 20
  4.1500
 30
0.0
 0
VERTEX
 8
PARTS
 10
  7.4300
 20
  4.0500
 30
0.0
 0
SEQEND
 8
PARTS
 0
POLYLINE
 8
PARTS
 66
1
 10
0.0
 20
0.0
 30
0.0
 0
VERTEX
 8
PARTS
 10
  7.4000
 20
  4.0000
 30
0.0
 0
VERTEX
 8
PARTS
 10
  7.4000
 20
  4.2000
 30
0.0
 0
SEQEND
 8
PARTS
 0
POLYLINE
 8
PARTS
 66
1
 10
0.0
 20
0.0
 30
0.0
 0
VERTEX
 8
PARTS
 10
  7.3600
 20
  4.1500
 30
0.0
 0
VERTEX
 8
PARTS
 10
  7.3600
 20
  4.0500
 30
0.0
 0
SEQEND
 8
PARTS
 0
POLYLINE
 8
PARTS
 66
1
 10
0.0
 20
0.0
 30
0.0
 0
VERTEX
 8
PARTS
 10
  7.5100
 20
  4.1000
 30
0.0
 0
VERTEX
 8
PARTS
 10
  7.4600
 20
  4.1000
 30
0.0
 0
SEQEND
 8
PARTS
 0
POLYLINE
 8
PARTS
 66
1
 10
0.0
 20
0.0
 30
0.0
 0
VERTEX
 8
PARTS
 10
  7.3000
 20
  4.1000
 30
0.0
 0
VERTEX
 8
PARTS
 10
  7.3600
 20
  4.1000
 30
0.0
 0
SEQEND
 8
PARTS
 0
POLYLINE
 8
PARTS
 66
1
 10
0.0
 20
0.0
 30
0.0
 0
VERTEX
 8
PARTS
 10
  7.4600
 20
  4.2000
 30
0.0
 0
VERTEX
 8
PARTS
 10
  7.4600
 20
  4.0000
 30
0.0
 0
SEQEND
 8
PARTS
 0
POLYLINE
 8
PARTS
 66
1
 10
0.0
 20
0.0
 30
0.0
 0
VERTEX
 8
PARTS
 10
  7.5000
 20
  4.1000
 30
0.0
 0
VERTEX
 8
PARTS
 10
  7.6000
 20
  4.1000
 30
0.0
 0
SEQEND
 8
PARTS
 0
POLYLINE
 8
PARTS
 66
1
 10
0.0
 20
0.0
 30
0.0
 0
VERTEX
 8
PARTS
 10
  7.5200
 20
  4.1700
 30
0.0
 0
VERTEX
 8
PARTS
 10
  7.5000
 20
  4.1700
 30
0.0
 0
SEQEND
 8
PARTS
 0
POLYLINE
 8
PARTS
 66
1
 10
0.0
 20
0.0
 30
0.0
 0
VERTEX
 8
PARTS
 10
  7.5100
 20
  4.1800
 30
0.0
 0
VERTEX
 8
PARTS
 10
  7.5100
 20
  4.1600
 30
0.0
 0
SEQEND
 8
PARTS
 0
POLYLINE
 8
PARTS
 66
1
 10
0.0
 20
0.0
 30
0.0
 0
VERTEX
 8
PARTS
 10
  7.3200
 20
  4.1800
 30
0.0
 0
VERTEX
 8
PARTS
 10
  7.3200
 20
  4.1600
 30
0.0
 0
SEQEND
 8
PARTS
 0
TEXT
 8
PARTTEXT
 10
  7.3000
 20
  6.7686
 30
0.0
 40
  0.0514
 1
V1
 0
TEXT
 8
PARTTEXT
 10
  7.3000
 20
  6.4086
 30
0.0
 40
  0.0514
 1
10Vdc
 0
TEXT
 8
PARTTEXT
 10
  7.3000
 20
  6.6686
 30
0.0
 40
  0.0514
 1
-54.38mW
 0
TEXT
 8
PARTS
 10
  7.7000
 20
  6.5186
 30
0.0
 40
  0.0514
 1
5.438mA
 0
LINE
 8
PARTS
 10
  7.7000
 20
  6.6000
 30
0.0
 11
  7.6000
 21
  6.6000
 31
0.0
 0
POLYLINE
 8
PARTS
 66
1
 10
0.0
 20
0.0
 30
0.0
 0
VERTEX
 8
PARTS
 10
  7.4700
 20
  6.5500
 30
0.0
 0
VERTEX
 8
PARTS
 10
  7.4700
 20
  6.6500
 30
0.0
 0
SEQEND
 8
PARTS
 0
POLYLINE
 8
PARTS
 66
1
 10
0.0
 20
0.0
 30
0.0
 0
VERTEX
 8
PARTS
 10
  7.5000
 20
  6.7000
 30
0.0
 0
VERTEX
 8
PARTS
 10
  7.5000
 20
  6.5000
 30
0.0
 0
SEQEND
 8
PARTS
 0
POLYLINE
 8
PARTS
 66
1
 10
0.0
 20
0.0
 30
0.0
 0
VERTEX
 8
PARTS
 10
  7.5400
 20
  6.5500
 30
0.0
 0
VERTEX
 8
PARTS
 10
  7.5400
 20
  6.6500
 30
0.0
 0
SEQEND
 8
PARTS
 0
POLYLINE
 8
PARTS
 66
1
 10
0.0
 20
0.0
 30
0.0
 0
VERTEX
 8
PARTS
 10
  7.3900
 20
  6.6000
 30
0.0
 0
VERTEX
 8
PARTS
 10
  7.4400
 20
  6.6000
 30
0.0
 0
SEQEND
 8
PARTS
 0
POLYLINE
 8
PARTS
 66
1
 10
0.0
 20
0.0
 30
0.0
 0
VERTEX
 8
PARTS
 10
  7.6000
 20
  6.6000
 30
0.0
 0
VERTEX
 8
PARTS
 10
  7.5400
 20
  6.6000
 30
0.0
 0
SEQEND
 8
PARTS
 0
POLYLINE
 8
PARTS
 66
1
 10
0.0
 20
0.0
 30
0.0
 0
VERTEX
 8
PARTS
 10
  7.4400
 20
  6.5000
 30
0.0
 0
VERTEX
 8
PARTS
 10
  7.4400
 20
  6.7000
 30
0.0
 0
SEQEND
 8
PARTS
 0
POLYLINE
 8
PARTS
 66
1
 10
0.0
 20
0.0
 30
0.0
 0
VERTEX
 8
PARTS
 10
  7.4000
 20
  6.6000
 30
0.0
 0
VERTEX
 8
PARTS
 10
  7.3000
 20
  6.6000
 30
0.0
 0
SEQEND
 8
PARTS
 0
POLYLINE
 8
PARTS
 66
1
 10
0.0
 20
0.0
 30
0.0
 0
VERTEX
 8
PARTS
 10
  7.3800
 20
  6.5300
 30
0.0
 0
VERTEX
 8
PARTS
 10
  7.4000
 20
  6.5300
 30
0.0
 0
SEQEND
 8
PARTS
 0
POLYLINE
 8
PARTS
 66
1
 10
0.0
 20
0.0
 30
0.0
 0
VERTEX
 8
PARTS
 10
  7.3900
 20
  6.5200
 30
0.0
 0
VERTEX
 8
PARTS
 10
  7.3900
 20
  6.5400
 30
0.0
 0
SEQEND
 8
PARTS
 0
POLYLINE
 8
PARTS
 66
1
 10
0.0
 20
0.0
 30
0.0
 0
VERTEX
 8
PARTS
 10
  7.5800
 20
  6.5200
 30
0.0
 0
VERTEX
 8
PARTS
 10
  7.5800
 20
  6.5400
 30
0.0
 0
SEQEND
 8
PARTS
 0
TEXT
 8
PARTTEXT
 10
  4.3500
 20
  4.3186
 30
0.0
 40
  0.0514
 1
R1
 0
TEXT
 8
PARTTEXT
 10
  4.3500
 20
  4.0686
 30
0.0
 40
  0.0514
 1
1k
 0
TEXT
 8
PARTTEXT
 10
  4.3500
 20
  4.2186
 30
0.0
 40
  0.0514
 1
249.8uW
 0
TEXT
 8
PARTS
 10
  4.6000
 20
  4.1186
 30
0.0
 40
  0.0514
 1
499.8uA
 0
LINE
 8
PARTS
 10
  4.6000
 20
  4.2000
 30
0.0
 11
  4.5000
 21
  4.2000
 31
0.0
 0
TEXT
 8
PARTS
 10
  4.5600
 20
  4.2300
 30
0.0
 40
  0.0500
 1
2
 0
TEXT
 8
PARTS
 10
  4.2000
 20
  4.1186
 30
0.0
 40
  0.0514
 1
<BiasValue Current>
 0
LINE
 8
PARTS
 10
  4.2000
 20
  4.2000
 30
0.0
 11
  4.3000
 21
  4.2000
 31
0.0
 0
TEXT
 8
PARTS
 10
  4.2000
 20
  4.2300
 30
0.0
 40
  0.0500
 1
1
 0
POLYLINE
 8
PARTS
 66
1
 10
0.0
 20
0.0
 30
0.0
 0
VERTEX
 8
PARTS
 10
  4.4200
 20
  4.1600
 30
0.0
 0
VERTEX
 8
PARTS
 10
  4.4500
 20
  4.2400
 30
0.0
 0
SEQEND
 8
PARTS
 0
POLYLINE
 8
PARTS
 66
1
 10
0.0
 20
0.0
 30
0.0
 0
VERTEX
 8
PARTS
 10
  4.3100
 20
  4.2000
 30
0.0
 0
VERTEX
 8
PARTS
 10
  4.3300
 20
  4.2400
 30
0.0
 0
SEQEND
 8
PARTS
 0
POLYLINE
 8
PARTS
 66
1
 10
0.0
 20
0.0
 30
0.0
 0
VERTEX
 8
PARTS
 10
  4.3300
 20
  4.2400
 30
0.0
 0
VERTEX
 8
PARTS
 10
  4.3600
 20
  4.1600
 30
0.0
 0
SEQEND
 8
PARTS
 0
POLYLINE
 8
PARTS
 66
1
 10
0.0
 20
0.0
 30
0.0
 0
VERTEX
 8
PARTS
 10
  4.3600
 20
  4.1600
 30
0.0
 0
VERTEX
 8
PARTS
 10
  4.3900
 20
  4.2400
 30
0.0
 0
SEQEND
 8
PARTS
 0
POLYLINE
 8
PARTS
 66
1
 10
0.0
 20
0.0
 30
0.0
 0
VERTEX
 8
PARTS
 10
  4.3900
 20
  4.2400
 30
0.0
 0
VERTEX
 8
PARTS
 10
  4.4200
 20
  4.1600
 30
0.0
 0
SEQEND
 8
PARTS
 0
POLYLINE
 8
PARTS
 66
1
 10
0.0
 20
0.0
 30
0.0
 0
VERTEX
 8
PARTS
 10
  4.3000
 20
  4.2000
 30
0.0
 0
VERTEX
 8
PARTS
 10
  4.3100
 20
  4.2000
 30
0.0
 0
SEQEND
 8
PARTS
 0
POLYLINE
 8
PARTS
 66
1
 10
0.0
 20
0.0
 30
0.0
 0
VERTEX
 8
PARTS
 10
  4.4500
 20
  4.2400
 30
0.0
 0
VERTEX
 8
PARTS
 10
  4.4800
 20
  4.1600
 30
0.0
 0
SEQEND
 8
PARTS
 0
POLYLINE
 8
PARTS
 66
1
 10
0.0
 20
0.0
 30
0.0
 0
VERTEX
 8
PARTS
 10
  4.4800
 20
  4.1600
 30
0.0
 0
VERTEX
 8
PARTS
 10
  4.5000
 20
  4.2000
 30
0.0
 0
SEQEND
 8
PARTS
 0
TEXT
 8
PARTTEXT
 10
  7.1600
 20
  5.2186
 30
0.0
 40
  0.0514
 1
R6
 0
TEXT
 8
PARTTEXT
 10
  7.1600
 20
  5.0986
 30
0.0
 40
  0.0514
 1
1000000
 0
TEXT
 8
PARTTEXT
 10
  7.1600
 20
  5.1186
 30
0.0
 40
  0.0514
 1
3.997uW
 0
TEXT
 8
PARTS
 10
  7.0000
 20
  5.3186
 30
0.0
 40
  0.0514
 1
1.999uA
 0
LINE
 8
PARTS
 10
  7.0000
 20
  5.4000
 30
0.0
 11
  7.0000
 21
  5.3000
 31
0.0
 0
TEXT
 8
PARTS
 10
  6.9700
 20
  5.3600
 30
0.0
 40
  0.0500
 50
 90.0000
 1
2
 0
LINE
 8
PARTS
 10
  7.0000
 20
  5.0000
 30
0.0
 11
  7.0000
 21
  5.1000
 31
0.0
 0
TEXT
 8
PARTS
 10
  6.9700
 20
  4.9800
 30
0.0
 40
  0.0500
 50
 90.0000
 1
1
 0
POLYLINE
 8
PARTS
 66
1
 10
0.0
 20
0.0
 30
0.0
 0
VERTEX
 8
PARTS
 10
  7.0400
 20
  5.2200
 30
0.0
 0
VERTEX
 8
PARTS
 10
  6.9600
 20
  5.2500
 30
0.0
 0
SEQEND
 8
PARTS
 0
POLYLINE
 8
PARTS
 66
1
 10
0.0
 20
0.0
 30
0.0
 0
VERTEX
 8
PARTS
 10
  7.0000
 20
  5.1100
 30
0.0
 0
VERTEX
 8
PARTS
 10
  6.9600
 20
  5.1300
 30
0.0
 0
SEQEND
 8
PARTS
 0
POLYLINE
 8
PARTS
 66
1
 10
0.0
 20
0.0
 30
0.0
 0
VERTEX
 8
PARTS
 10
  6.9600
 20
  5.1300
 30
0.0
 0
VERTEX
 8
PARTS
 10
  7.0400
 20
  5.1600
 30
0.0
 0
SEQEND
 8
PARTS
 0
POLYLINE
 8
PARTS
 66
1
 10
0.0
 20
0.0
 30
0.0
 0
VERTEX
 8
PARTS
 10
  7.0400
 20
  5.1600
 30
0.0
 0
VERTEX
 8
PARTS
 10
  6.9600
 20
  5.1900
 30
0.0
 0
SEQEND
 8
PARTS
 0
POLYLINE
 8
PARTS
 66
1
 10
0.0
 20
0.0
 30
0.0
 0
VERTEX
 8
PARTS
 10
  6.9600
 20
  5.1900
 30
0.0
 0
VERTEX
 8
PARTS
 10
  7.0400
 20
  5.2200
 30
0.0
 0
SEQEND
 8
PARTS
 0
POLYLINE
 8
PARTS
 66
1
 10
0.0
 20
0.0
 30
0.0
 0
VERTEX
 8
PARTS
 10
  7.0000
 20
  5.1000
 30
0.0
 0
VERTEX
 8
PARTS
 10
  7.0000
 20
  5.1100
 30
0.0
 0
SEQEND
 8
PARTS
 0
POLYLINE
 8
PARTS
 66
1
 10
0.0
 20
0.0
 30
0.0
 0
VERTEX
 8
PARTS
 10
  6.9600
 20
  5.2500
 30
0.0
 0
VERTEX
 8
PARTS
 10
  7.0400
 20
  5.2800
 30
0.0
 0
SEQEND
 8
PARTS
 0
POLYLINE
 8
PARTS
 66
1
 10
0.0
 20
0.0
 30
0.0
 0
VERTEX
 8
PARTS
 10
  7.0400
 20
  5.2800
 30
0.0
 0
VERTEX
 8
PARTS
 10
  7.0000
 20
  5.3000
 30
0.0
 0
SEQEND
 8
PARTS
 0
TEXT
 8
PARTTEXT
 10
  4.1600
 20
  5.7586
 30
0.0
 40
  0.0514
 1
U1A
 0
TEXT
 8
PARTTEXT
 10
  4.1600
 20
  5.6386
 30
0.0
 40
  0.0514
 1
LM324
 0
TEXT
 8
PARTTEXT
 10
  4.1600
 20
  5.6586
 30
0.0
 40
  0.0514
 1
49.62mW
 0
TEXT
 8
PARTS
 10
  3.4000
 20
  5.4186
 30
0.0
 40
  0.0514
 1
-44.53nA
 0
LINE
 8
PARTS
 10
  3.4000
 20
  5.5000
 30
0.0
 11
  3.5000
 21
  5.5000
 31
0.0
 0
TEXT
 8
PARTS
 10
  3.5900
 20
  5.4750
 30
0.0
 40
  0.0500
 1
+
 0
TEXT
 8
PARTS
 10
  3.4000
 20
  5.5300
 30
0.0
 40
  0.0500
 1
3
 0
TEXT
 8
PARTS
 10
  3.4000
 20
  5.0186
 30
0.0
 40
  0.0514
 1
-44.93nA
 0
LINE
 8
PARTS
 10
  3.4000
 20
  5.1000
 30
0.0
 11
  3.5000
 21
  5.1000
 31
0.0
 0
TEXT
 8
PARTS
 10
  3.5900
 20
  5.0750
 30
0.0
 40
  0.0500
 1
-
 0
TEXT
 8
PARTS
 10
  3.4000
 20
  5.1300
 30
0.0
 40
  0.0500
 1
2
 0
TEXT
 8
PARTS
 10
  3.8000
 20
  5.5186
 30
0.0
 40
  0.0514
 1
2.218mA
 0
TEXT
 8
PARTS
 10
  3.8250
 20
  5.4300
 30
0.0
 40
  0.0500
 50
 90.0000
 1
V+
 0
TEXT
 8
PARTS
 10
  3.7700
 20
  5.6600
 30
0.0
 40
  0.0500
 50
 90.0000
 1
4
 0
TEXT
 8
PARTS
 10
  3.8000
 20
  4.9186
 30
0.0
 40
  0.0514
 1
-2.718mA
 0
TEXT
 8
PARTS
 10
  3.8250
 20
  5.0900
 30
0.0
 40
  0.0500
 50
 90.0000
 1
V-
 0
TEXT
 8
PARTS
 10
  3.7700
 20
  4.8800
 30
0.0
 40
  0.0500
 50
 90.0000
 1
11
 0
TEXT
 8
PARTS
 10
  4.2000
 20
  5.2186
 30
0.0
 40
  0.0514
 1
500.3uA
 0
LINE
 8
PARTS
 10
  4.2000
 20
  5.3000
 30
0.0
 11
  4.1000
 21
  5.3000
 31
0.0
 0
TEXT
 8
PARTS
 10
  3.8900
 20
  5.2750
 30
0.0
 40
  0.0500
 1
OUT
 0
TEXT
 8
PARTS
 10
  4.1600
 20
  5.3300
 30
0.0
 40
  0.0500
 1
1
 0
POLYLINE
 8
PARTS
 66
1
 10
0.0
 20
0.0
 30
0.0
 0
VERTEX
 8
PARTS
 10
  3.5000
 20
  5.0000
 30
0.0
 0
VERTEX
 8
PARTS
 10
  4.1000
 20
  5.3000
 30
0.0
 0
SEQEND
 8
PARTS
 0
POLYLINE
 8
PARTS
 66
1
 10
0.0
 20
0.0
 30
0.0
 0
VERTEX
 8
PARTS
 10
  4.1000
 20
  5.3000
 30
0.0
 0
VERTEX
 8
PARTS
 10
  3.5000
 20
  5.6000
 30
0.0
 0
SEQEND
 8
PARTS
 0
POLYLINE
 8
PARTS
 66
1
 10
0.0
 20
0.0
 30
0.0
 0
VERTEX
 8
PARTS
 10
  3.8000
 20
  5.5000
 30
0.0
 0
VERTEX
 8
PARTS
 10
  3.8000
 20
  5.4500
 30
0.0
 0
SEQEND
 8
PARTS
 0
POLYLINE
 8
PARTS
 66
1
 10
0.0
 20
0.0
 30
0.0
 0
VERTEX
 8
PARTS
 10
  3.8000
 20
  5.1000
 30
0.0
 0
VERTEX
 8
PARTS
 10
  3.8000
 20
  5.1500
 30
0.0
 0
SEQEND
 8
PARTS
 0
POLYLINE
 8
PARTS
 66
1
 10
0.0
 20
0.0
 30
0.0
 0
VERTEX
 8
PARTS
 10
  3.5000
 20
  5.6000
 30
0.0
 0
VERTEX
 8
PARTS
 10
  3.5000
 20
  5.0000
 30
0.0
 0
SEQEND
 8
PARTS
 0
POLYLINE
 8
PARTS
 66
1
 10
0.0
 20
0.0
 30
0.0
 0
VERTEX
 8
PARTS
 10
  3.8000
 20
  5.5000
 30
0.0
 0
VERTEX
 8
PARTS
 10
  3.8000
 20
  5.6000
 30
0.0
 0
SEQEND
 8
PARTS
 0
POLYLINE
 8
PARTS
 66
1
 10
0.0
 20
0.0
 30
0.0
 0
VERTEX
 8
PARTS
 10
  3.8000
 20
  5.1000
 30
0.0
 0
VERTEX
 8
PARTS
 10
  3.8000
 20
  5.0000
 30
0.0
 0
SEQEND
 8
PARTS
 0
POLYLINE
 8
WIRE
 66
1
 10
0.0
 20
0.0
 30
0.0
 0
VERTEX
 8
WIRE
 10
  3.1000
 20
  5.1000
 30
0.0
 0
VERTEX
 8
WIRE
 10
  3.3000
 20
  5.1000
 30
0.0
 0
SEQEND
 8
WIRE
 0
POLYLINE
 8
WIRE
 66
1
 10
0.0
 20
0.0
 30
0.0
 0
VERTEX
 8
WIRE
 10
  4.2000
 20
  5.3000
 30
0.0
 0
VERTEX
 8
WIRE
 10
  4.3000
 20
  5.3000
 30
0.0
 0
SEQEND
 8
WIRE
 0
POLYLINE
 8
WIRE
 66
1
 10
0.0
 20
0.0
 30
0.0
 0
VERTEX
 8
WIRE
 10
  4.9000
 20
  5.3000
 30
0.0
 0
VERTEX
 8
WIRE
 10
  5.1000
 20
  5.3000
 30
0.0
 0
SEQEND
 8
WIRE
 0
POLYLINE
 8
WIRE
 66
1
 10
0.0
 20
0.0
 30
0.0
 0
VERTEX
 8
WIRE
 10
  5.5000
 20
  4.8000
 30
0.0
 0
VERTEX
 8
WIRE
 10
  5.1000
 20
  4.8000
 30
0.0
 0
SEQEND
 8
WIRE
 0
POLYLINE
 8
WIRE
 66
1
 10
0.0
 20
0.0
 30
0.0
 0
VERTEX
 8
WIRE
 10
  5.1000
 20
  4.8000
 30
0.0
 0
VERTEX
 8
WIRE
 10
  5.1000
 20
  5.3000
 30
0.0
 0
SEQEND
 8
WIRE
 0
POLYLINE
 8
WIRE
 66
1
 70
1
 10
0.0
 20
0.0
 30
0.0
 40
  0.0200
 41
  0.0200
 0
VERTEX
 8
WIRE
 10
  5.0900
 20
  5.3000
 30
0.0
 42
1.0
 0
VERTEX
 8
WIRE
 10
  5.1100
 20
  5.3000
 30
0.0
 42
1.0
 0
SEQEND
 8
WIRE
 0
POLYLINE
 8
WIRE
 66
1
 10
0.0
 20
0.0
 30
0.0
 0
VERTEX
 8
WIRE
 10
  5.1000
 20
  5.3000
 30
0.0
 0
VERTEX
 8
WIRE
 10
  5.3000
 20
  5.3000
 30
0.0
 0
SEQEND
 8
WIRE
 0
POLYLINE
 8
WIRE
 66
1
 10
0.0
 20
0.0
 30
0.0
 0
VERTEX
 8
WIRE
 10
  4.3000
 20
  5.3000
 30
0.0
 0
VERTEX
 8
WIRE
 10
  4.3000
 20
  4.6000
 30
0.0
 0
SEQEND
 8
WIRE
 0
TEXT
 8
WIRETEXT
 10
  4.3000
 20
  4.8686
 30
0.0
 40
  0.0514
 1
499.4mV
 0
POLYLINE
 8
WIRE
 66
1
 70
1
 10
0.0
 20
0.0
 30
0.0
 40
  0.0200
 41
  0.0200
 0
VERTEX
 8
WIRE
 10
  4.2900
 20
  5.3000
 30
0.0
 42
1.0
 0
VERTEX
 8
WIRE
 10
  4.3100
 20
  5.3000
 30
0.0
 42
1.0
 0
SEQEND
 8
WIRE
 0
POLYLINE
 8
WIRE
 66
1
 10
0.0
 20
0.0
 30
0.0
 0
VERTEX
 8
WIRE
 10
  4.3000
 20
  5.3000
 30
0.0
 0
VERTEX
 8
WIRE
 10
  4.5000
 20
  5.3000
 30
0.0
 0
SEQEND
 8
WIRE
 0
POLYLINE
 8
WIRE
 66
1
 10
0.0
 20
0.0
 30
0.0
 0
VERTEX
 8
WIRE
 10
  4.3000
 20
  4.6000
 30
0.0
 0
VERTEX
 8
WIRE
 10
  4.0000
 20
  4.6000
 30
0.0
 0
SEQEND
 8
WIRE
 0
POLYLINE
 8
WIRE
 66
1
 10
0.0
 20
0.0
 30
0.0
 0
VERTEX
 8
WIRE
 10
  3.6000
 20
  4.6000
 30
0.0
 0
VERTEX
 8
WIRE
 10
  3.3000
 20
  4.6000
 30
0.0
 0
SEQEND
 8
WIRE
 0
POLYLINE
 8
WIRE
 66
1
 10
0.0
 20
0.0
 30
0.0
 0
VERTEX
 8
WIRE
 10
  3.3000
 20
  4.6000
 30
0.0
 0
VERTEX
 8
WIRE
 10
  3.3000
 20
  5.1000
 30
0.0
 0
SEQEND
 8
WIRE
 0
POLYLINE
 8
WIRE
 66
1
 10
0.0
 20
0.0
 30
0.0
 0
VERTEX
 8
WIRE
 10
  3.3000
 20
  5.1000
 30
0.0
 0
VERTEX
 8
WIRE
 10
  3.4000
 20
  5.1000
 30
0.0
 0
SEQEND
 8
WIRE
 0
POLYLINE
 8
WIRE
 66
1
 70
1
 10
0.0
 20
0.0
 30
0.0
 40
  0.0200
 41
  0.0200
 0
VERTEX
 8
WIRE
 10
  3.2900
 20
  5.1000
 30
0.0
 42
1.0
 0
VERTEX
 8
WIRE
 10
  3.3100
 20
  5.1000
 30
0.0
 42
1.0
 0
SEQEND
 8
WIRE
 0
POLYLINE
 8
WIRE
 66
1
 10
0.0
 20
0.0
 30
0.0
 0
VERTEX
 8
WIRE
 10
  4.6000
 20
  4.2000
 30
0.0
 0
VERTEX
 8
WIRE
 10
  5.1000
 20
  4.2000
 30
0.0
 0
SEQEND
 8
WIRE
 0
POLYLINE
 8
WIRE
 66
1
 10
0.0
 20
0.0
 30
0.0
 0
VERTEX
 8
WIRE
 10
  5.1000
 20
  4.2000
 30
0.0
 0
VERTEX
 8
WIRE
 10
  5.1000
 20
  4.8000
 30
0.0
 0
SEQEND
 8
WIRE
 0
TEXT
 8
WIRETEXT
 10
  5.1000
 20
  4.4186
 30
0.0
 40
  0.0514
 1
1.000V
 0
POLYLINE
 8
WIRE
 66
1
 70
1
 10
0.0
 20
0.0
 30
0.0
 40
  0.0200
 41
  0.0200
 0
VERTEX
 8
WIRE
 10
  5.0900
 20
  4.8000
 30
0.0
 42
1.0
 0
VERTEX
 8
WIRE
 10
  5.1100
 20
  4.8000
 30
0.0
 42
1.0
 0
SEQEND
 8
WIRE
 0
POLYLINE
 8
WIRE
 66
1
 10
0.0
 20
0.0
 30
0.0
 0
VERTEX
 8
WIRE
 10
  4.2000
 20
  4.2000
 30
0.0
 0
VERTEX
 8
WIRE
 10
  3.3000
 20
  4.2000
 30
0.0
 0
SEQEND
 8
WIRE
 0
TEXT
 8
WIRETEXT
 10
  3.7500
 20
  4.1186
 30
0.0
 40
  0.0514
 1
499.6mV
 0
POLYLINE
 8
WIRE
 66
1
 10
0.0
 20
0.0
 30
0.0
 0
VERTEX
 8
WIRE
 10
  3.3000
 20
  4.2000
 30
0.0
 0
VERTEX
 8
WIRE
 10
  3.3000
 20
  4.6000
 30
0.0
 0
SEQEND
 8
WIRE
 0
POLYLINE
 8
WIRE
 66
1
 70
1
 10
0.0
 20
0.0
 30
0.0
 40
  0.0200
 41
  0.0200
 0
VERTEX
 8
WIRE
 10
  3.2900
 20
  4.6000
 30
0.0
 42
1.0
 0
VERTEX
 8
WIRE
 10
  3.3100
 20
  4.6000
 30
0.0
 42
1.0
 0
SEQEND
 8
WIRE
 0
POLYLINE
 8
WIRE
 66
1
 10
0.0
 20
0.0
 30
0.0
 0
VERTEX
 8
WIRE
 10
  6.1000
 20
  5.5000
 30
0.0
 0
VERTEX
 8
WIRE
 10
  6.5000
 20
  5.5000
 30
0.0
 0
SEQEND
 8
WIRE
 0
POLYLINE
 8
WIRE
 66
1
 10
0.0
 20
0.0
 30
0.0
 0
VERTEX
 8
WIRE
 10
  6.5000
 20
  5.5000
 30
0.0
 0
VERTEX
 8
WIRE
 10
  6.5000
 20
  4.8000
 30
0.0
 0
SEQEND
 8
WIRE
 0
TEXT
 8
WIRETEXT
 10
  6.5000
 20
  5.0686
 30
0.0
 40
  0.0514
 1
1.999V
 0
POLYLINE
 8
WIRE
 66
1
 70
1
 10
0.0
 20
0.0
 30
0.0
 40
  0.0200
 41
  0.0200
 0
VERTEX
 8
WIRE
 10
  6.4900
 20
  5.5000
 30
0.0
 42
1.0
 0
VERTEX
 8
WIRE
 10
  6.5100
 20
  5.5000
 30
0.0
 42
1.0
 0
SEQEND
 8
WIRE
 0
POLYLINE
 8
WIRE
 66
1
 10
0.0
 20
0.0
 30
0.0
 0
VERTEX
 8
WIRE
 10
  6.5000
 20
  4.8000
 30
0.0
 0
VERTEX
 8
WIRE
 10
  5.9000
 20
  4.8000
 30
0.0
 0
SEQEND
 8
WIRE
 0
POLYLINE
 8
WIRE
 66
1
 10
0.0
 20
0.0
 30
0.0
 0
VERTEX
 8
WIRE
 10
  2.7000
 20
  5.1000
 30
0.0
 0
VERTEX
 8
WIRE
 10
  2.5000
 20
  5.1000
 30
0.0
 0
SEQEND
 8
WIRE
 0
TEXT
 8
WIRETEXT
 10
  2.6000
 20
  5.0186
 30
0.0
 40
  0.0514
 1
0V
 0
POLYLINE
 8
WIRE
 66
1
 10
0.0
 20
0.0
 30
0.0
 0
VERTEX
 8
WIRE
 10
  2.5000
 20
  5.1000
 30
0.0
 0
VERTEX
 8
WIRE
 10
  2.5000
 20
  5.0000
 30
0.0
 0
SEQEND
 8
WIRE
 0
POLYLINE
 8
WIRE
 66
1
 10
0.0
 20
0.0
 30
0.0
 0
VERTEX
 8
WIRE
 10
  3.8000
 20
  6.6000
 30
0.0
 0
VERTEX
 8
WIRE
 10
  5.7000
 20
  6.6000
 30
0.0
 0
SEQEND
 8
WIRE
 0
TEXT
 8
WIRETEXT
 10
  4.7500
 20
  6.5186
 30
0.0
 40
  0.0514
 1
10.00V
 0
POLYLINE
 8
WIRE
 66
1
 70
1
 10
0.0
 20
0.0
 30
0.0
 40
  0.0200
 41
  0.0200
 0
VERTEX
 8
WIRE
 10
  5.6900
 20
  6.6000
 30
0.0
 42
1.0
 0
VERTEX
 8
WIRE
 10
  5.7100
 20
  6.6000
 30
0.0
 42
1.0
 0
SEQEND
 8
WIRE
 0
POLYLINE
 8
WIRE
 66
1
 10
0.0
 20
0.0
 30
0.0
 0
VERTEX
 8
WIRE
 10
  3.8000
 20
  6.6000
 30
0.0
 0
VERTEX
 8
WIRE
 10
  3.8000
 20
  5.6000
 30
0.0
 0
SEQEND
 8
WIRE
 0
POLYLINE
 8
WIRE
 66
1
 10
0.0
 20
0.0
 30
0.0
 0
VERTEX
 8
WIRE
 10
  5.7000
 20
  6.6000
 30
0.0
 0
VERTEX
 8
WIRE
 10
  5.7000
 20
  5.8000
 30
0.0
 0
SEQEND
 8
WIRE
 0
POLYLINE
 8
WIRE
 66
1
 10
0.0
 20
0.0
 30
0.0
 0
VERTEX
 8
WIRE
 10
  5.7000
 20
  6.6000
 30
0.0
 0
VERTEX
 8
WIRE
 10
  7.3000
 20
  6.6000
 30
0.0
 0
SEQEND
 8
WIRE
 0
POLYLINE
 8
WIRE
 66
1
 10
0.0
 20
0.0
 30
0.0
 0
VERTEX
 8
WIRE
 10
  7.2000
 20
  4.1000
 30
0.0
 0
VERTEX
 8
WIRE
 10
  6.0000
 20
  4.1000
 30
0.0
 0
SEQEND
 8
WIRE
 0
POLYLINE
 8
WIRE
 66
1
 10
0.0
 20
0.0
 30
0.0
 0
VERTEX
 8
WIRE
 10
  6.0000
 20
  5.2000
 30
0.0
 0
VERTEX
 8
WIRE
 10
  6.0000
 20
  4.4000
 30
0.0
 0
SEQEND
 8
WIRE
 0
POLYLINE
 8
WIRE
 66
1
 10
0.0
 20
0.0
 30
0.0
 0
VERTEX
 8
WIRE
 10
  6.0000
 20
  5.2000
 30
0.0
 0
VERTEX
 8
WIRE
 10
  5.7000
 20
  5.2000
 30
0.0
 0
SEQEND
 8
WIRE
 0
POLYLINE
 8
WIRE
 66
1
 10
0.0
 20
0.0
 30
0.0
 0
VERTEX
 8
WIRE
 10
  3.8000
 20
  5.0000
 30
0.0
 0
VERTEX
 8
WIRE
 10
  4.7000
 20
  5.0000
 30
0.0
 0
SEQEND
 8
WIRE
 0
POLYLINE
 8
WIRE
 66
1
 10
0.0
 20
0.0
 30
0.0
 0
VERTEX
 8
WIRE
 10
  4.7000
 20
  5.0000
 30
0.0
 0
VERTEX
 8
WIRE
 10
  4.7000
 20
  4.4000
 30
0.0
 0
SEQEND
 8
WIRE
 0
POLYLINE
 8
WIRE
 66
1
 10
0.0
 20
0.0
 30
0.0
 0
VERTEX
 8
WIRE
 10
  4.7000
 20
  4.4000
 30
0.0
 0
VERTEX
 8
WIRE
 10
  6.0000
 20
  4.4000
 30
0.0
 0
SEQEND
 8
WIRE
 0
TEXT
 8
WIRETEXT
 10
  5.3500
 20
  4.3186
 30
0.0
 40
  0.0514
 1
-10.00V
 0
POLYLINE
 8
WIRE
 66
1
 70
1
 10
0.0
 20
0.0
 30
0.0
 40
  0.0200
 41
  0.0200
 0
VERTEX
 8
WIRE
 10
  5.9900
 20
  4.4000
 30
0.0
 42
1.0
 0
VERTEX
 8
WIRE
 10
  6.0100
 20
  4.4000
 30
0.0
 42
1.0
 0
SEQEND
 8
WIRE
 0
POLYLINE
 8
WIRE
 66
1
 10
0.0
 20
0.0
 30
0.0
 0
VERTEX
 8
WIRE
 10
  6.0000
 20
  4.4000
 30
0.0
 0
VERTEX
 8
WIRE
 10
  6.0000
 20
  4.1000
 30
0.0
 0
SEQEND
 8
WIRE
 0
POLYLINE
 8
WIRE
 66
1
 10
0.0
 20
0.0
 30
0.0
 0
VERTEX
 8
WIRE
 10
  7.6000
 20
  4.1000
 30
0.0
 0
VERTEX
 8
WIRE
 10
  7.8000
 20
  4.1000
 30
0.0
 0
SEQEND
 8
WIRE
 0
POLYLINE
 8
WIRE
 66
1
 10
0.0
 20
0.0
 30
0.0
 0
VERTEX
 8
WIRE
 10
  7.8000
 20
  6.6000
 30
0.0
 0
VERTEX
 8
WIRE
 10
  7.8000
 20
  5.1000
 30
0.0
 0
SEQEND
 8
WIRE
 0
TEXT
 8
WIRETEXT
 10
  7.8000
 20
  5.7686
 30
0.0
 40
  0.0514
 1
0V
 0
POLYLINE
 8
WIRE
 66
1
 70
1
 10
0.0
 20
0.0
 30
0.0
 40
  0.0200
 41
  0.0200
 0
VERTEX
 8
WIRE
 10
  7.7900
 20
  5.1000
 30
0.0
 42
1.0
 0
VERTEX
 8
WIRE
 10
  7.8100
 20
  5.1000
 30
0.0
 42
1.0
 0
SEQEND
 8
WIRE
 0
POLYLINE
 8
WIRE
 66
1
 10
0.0
 20
0.0
 30
0.0
 0
VERTEX
 8
WIRE
 10
  7.8000
 20
  6.6000
 30
0.0
 0
VERTEX
 8
WIRE
 10
  7.7000
 20
  6.6000
 30
0.0
 0
SEQEND
 8
WIRE
 0
POLYLINE
 8
WIRE
 66
1
 10
0.0
 20
0.0
 30
0.0
 0
VERTEX
 8
WIRE
 10
  8.1000
 20
  4.7000
 30
0.0
 0
VERTEX
 8
WIRE
 10
  8.1000
 20
  5.1000
 30
0.0
 0
SEQEND
 8
WIRE
 0
POLYLINE
 8
WIRE
 66
1
 10
0.0
 20
0.0
 30
0.0
 0
VERTEX
 8
WIRE
 10
  8.1000
 20
  5.1000
 30
0.0
 0
VERTEX
 8
WIRE
 10
  7.8000
 20
  5.1000
 30
0.0
 0
SEQEND
 8
WIRE
 0
POLYLINE
 8
WIRE
 66
1
 10
0.0
 20
0.0
 30
0.0
 0
VERTEX
 8
WIRE
 10
  7.8000
 20
  5.1000
 30
0.0
 0
VERTEX
 8
WIRE
 10
  7.8000
 20
  5.0000
 30
0.0
 0
SEQEND
 8
WIRE
 0
POLYLINE
 8
WIRE
 66
1
 10
0.0
 20
0.0
 30
0.0
 0
VERTEX
 8
WIRE
 10
  7.0000
 20
  5.4000
 30
0.0
 0
VERTEX
 8
WIRE
 10
  7.0000
 20
  5.5000
 30
0.0
 0
SEQEND
 8
WIRE
 0
POLYLINE
 8
WIRE
 66
1
 10
0.0
 20
0.0
 30
0.0
 0
VERTEX
 8
WIRE
 10
  7.0000
 20
  5.5000
 30
0.0
 0
VERTEX
 8
WIRE
 10
  6.5000
 20
  5.5000
 30
0.0
 0
SEQEND
 8
WIRE
 0
POLYLINE
 8
WIRE
 66
1
 10
0.0
 20
0.0
 30
0.0
 0
VERTEX
 8
WIRE
 10
  7.0000
 20
  5.0000
 30
0.0
 0
VERTEX
 8
WIRE
 10
  7.8000
 20
  5.0000
 30
0.0
 0
SEQEND
 8
WIRE
 0
POLYLINE
 8
WIRE
 66
1
 70
1
 10
0.0
 20
0.0
 30
0.0
 40
  0.0200
 41
  0.0200
 0
VERTEX
 8
WIRE
 10
  7.7900
 20
  5.0000
 30
0.0
 42
1.0
 0
VERTEX
 8
WIRE
 10
  7.8100
 20
  5.0000
 30
0.0
 42
1.0
 0
SEQEND
 8
WIRE
 0
POLYLINE
 8
WIRE
 66
1
 10
0.0
 20
0.0
 30
0.0
 0
VERTEX
 8
WIRE
 10
  7.8000
 20
  5.0000
 30
0.0
 0
VERTEX
 8
WIRE
 10
  7.8000
 20
  4.1000
 30
0.0
 0
SEQEND
 8
WIRE
 0
POLYLINE
 8
WIRE
 66
1
 10
0.0
 20
0.0
 30
0.0
 0
VERTEX
 8
WIRE
 10
  3.4000
 20
  5.5000
 30
0.0
 0
VERTEX
 8
WIRE
 10
  3.4000
 20
  6.3000
 30
0.0
 0
SEQEND
 8
WIRE
 0
TEXT
 8
WIRETEXT
 10
  3.4000
 20
  5.8186
 30
0.0
 40
  0.0514
 1
500.0mV
 0
POLYLINE
 8
WIRE
 66
1
 10
0.0
 20
0.0
 30
0.0
 0
VERTEX
 8
WIRE
 10
  3.4000
 20
  6.3000
 30
0.0
 0
VERTEX
 8
WIRE
 10
  3.1000
 20
  6.3000
 30
0.0
 0
SEQEND
 8
WIRE
 0
POLYLINE
 8
WIRE
 66
1
 10
0.0
 20
0.0
 30
0.0
 0
VERTEX
 8
WIRE
 10
  2.7000
 20
  6.3000
 30
0.0
 0
VERTEX
 8
WIRE
 10
  2.4000
 20
  6.3000
 30
0.0
 0
SEQEND
 8
WIRE
 0
TEXT
 8
WIRETEXT
 10
  2.5500
 20
  6.2186
 30
0.0
 40
  0.0514
 1
0V
 0
POLYLINE
 8
WIRE
 66
1
 10
0.0
 20
0.0
 30
0.0
 0
VERTEX
 8
WIRE
 10
  2.4000
 20
  6.3000
 30
0.0
 0
VERTEX
 8
WIRE
 10
  2.4000
 20
  6.0000
 30
0.0
 0
SEQEND
 8
WIRE
 0
POLYLINE
 8
WIRE
 66
1
 10
0.0
 20
0.0
 30
0.0
 0
VERTEX
 8
WIRE
 10
  5.1000
 20
  6.3000
 30
0.0
 0
VERTEX
 8
WIRE
 10
  5.3000
 20
  6.3000
 30
0.0
 0
SEQEND
 8
WIRE
 0
POLYLINE
 8
WIRE
 66
1
 10
0.0
 20
0.0
 30
0.0
 0
VERTEX
 8
WIRE
 10
  5.3000
 20
  6.3000
 30
0.0
 0
VERTEX
 8
WIRE
 10
  5.3000
 20
  5.7000
 30
0.0
 0
SEQEND
 8
WIRE
 0
TEXT
 8
WIRETEXT
 10
  5.3000
 20
  5.9186
 30
0.0
 40
  0.0514
 1
1.000V
 0
POLYLINE
 8
WIRE
 66
1
 10
0.0
 20
0.0
 30
0.0
 0
VERTEX
 8
WIRE
 10
  4.7000
 20
  6.3000
 30
0.0
 0
VERTEX
 8
WIRE
 10
  4.2000
 20
  6.3000
 30
0.0
 0
SEQEND
 8
WIRE
 0
TEXT
 8
WIRETEXT
 10
  4.4500
 20
  6.2186
 30
0.0
 40
  0.0514
 1
0V
 0
POLYLINE
 8
WIRE
 66
1
 10
0.0
 20
0.0
 30
0.0
 0
VERTEX
 8
WIRE
 10
  4.2000
 20
  6.3000
 30
0.0
 0
VERTEX
 8
WIRE
 10
  4.2000
 20
  6.1000
 30
0.0
 0
SEQEND
 8
WIRE
 0
TEXT
 8
PARTTEXT
 10
  2.5600
 20
  4.8572
 30
0.0
 40
  0.0628
 1
0
 0
POLYLINE
 8
PARTS
 66
1
 10
0.0
 20
0.0
 30
0.0
 0
VERTEX
 8
PARTS
 10
  2.4000
 20
  5.0000
 30
0.0
 0
VERTEX
 8
PARTS
 10
  2.6000
 20
  5.0000
 30
0.0
 0
SEQEND
 8
PARTS
 0
POLYLINE
 8
PARTS
 66
1
 10
0.0
 20
0.0
 30
0.0
 0
VERTEX
 8
PARTS
 10
  2.4300
 20
  4.9700
 30
0.0
 0
VERTEX
 8
PARTS
 10
  2.5700
 20
  4.9700
 30
0.0
 0
SEQEND
 8
PARTS
 0
POLYLINE
 8
PARTS
 66
1
 10
0.0
 20
0.0
 30
0.0
 0
VERTEX
 8
PARTS
 10
  2.5400
 20
  4.9400
 30
0.0
 0
VERTEX
 8
PARTS
 10
  2.4600
 20
  4.9400
 30
0.0
 0
SEQEND
 8
PARTS
 0
POLYLINE
 8
PARTS
 66
1
 10
0.0
 20
0.0
 30
0.0
 0
VERTEX
 8
PARTS
 10
  2.4900
 20
  4.9100
 30
0.0
 0
VERTEX
 8
PARTS
 10
  2.5100
 20
  4.9100
 30
0.0
 0
SEQEND
 8
PARTS
 0
TEXT
 8
PARTTEXT
 10
  8.1600
 20
  4.5572
 30
0.0
 40
  0.0628
 1
0
 0
POLYLINE
 8
PARTS
 66
1
 10
0.0
 20
0.0
 30
0.0
 0
VERTEX
 8
PARTS
 10
  8.0000
 20
  4.7000
 30
0.0
 0
VERTEX
 8
PARTS
 10
  8.2000
 20
  4.7000
 30
0.0
 0
SEQEND
 8
PARTS
 0
POLYLINE
 8
PARTS
 66
1
 10
0.0
 20
0.0
 30
0.0
 0
VERTEX
 8
PARTS
 10
  8.0300
 20
  4.6700
 30
0.0
 0
VERTEX
 8
PARTS
 10
  8.1700
 20
  4.6700
 30
0.0
 0
SEQEND
 8
PARTS
 0
POLYLINE
 8
PARTS
 66
1
 10
0.0
 20
0.0
 30
0.0
 0
VERTEX
 8
PARTS
 10
  8.1400
 20
  4.6400
 30
0.0
 0
VERTEX
 8
PARTS
 10
  8.0600
 20
  4.6400
 30
0.0
 0
SEQEND
 8
PARTS
 0
POLYLINE
 8
PARTS
 66
1
 10
0.0
 20
0.0
 30
0.0
 0
VERTEX
 8
PARTS
 10
  8.0900
 20
  4.6100
 30
0.0
 0
VERTEX
 8
PARTS
 10
  8.1100
 20
  4.6100
 30
0.0
 0
SEQEND
 8
PARTS
 0
TEXT
 8
PARTTEXT
 10
  2.4600
 20
  5.8572
 30
0.0
 40
  0.0628
 1
0
 0
POLYLINE
 8
PARTS
 66
1
 10
0.0
 20
0.0
 30
0.0
 0
VERTEX
 8
PARTS
 10
  2.3000
 20
  6.0000
 30
0.0
 0
VERTEX
 8
PARTS
 10
  2.5000
 20
  6.0000
 30
0.0
 0
SEQEND
 8
PARTS
 0
POLYLINE
 8
PARTS
 66
1
 10
0.0
 20
0.0
 30
0.0
 0
VERTEX
 8
PARTS
 10
  2.3300
 20
  5.9700
 30
0.0
 0
VERTEX
 8
PARTS
 10
  2.4700
 20
  5.9700
 30
0.0
 0
SEQEND
 8
PARTS
 0
POLYLINE
 8
PARTS
 66
1
 10
0.0
 20
0.0
 30
0.0
 0
VERTEX
 8
PARTS
 10
  2.4400
 20
  5.9400
 30
0.0
 0
VERTEX
 8
PARTS
 10
  2.3600
 20
  5.9400
 30
0.0
 0
SEQEND
 8
PARTS
 0
POLYLINE
 8
PARTS
 66
1
 10
0.0
 20
0.0
 30
0.0
 0
VERTEX
 8
PARTS
 10
  2.3900
 20
  5.9100
 30
0.0
 0
VERTEX
 8
PARTS
 10
  2.4100
 20
  5.9100
 30
0.0
 0
SEQEND
 8
PARTS
 0
TEXT
 8
PARTTEXT
 10
  4.2600
 20
  5.9572
 30
0.0
 40
  0.0628
 1
0
 0
POLYLINE
 8
PARTS
 66
1
 10
0.0
 20
0.0
 30
0.0
 0
VERTEX
 8
PARTS
 10
  4.1000
 20
  6.1000
 30
0.0
 0
VERTEX
 8
PARTS
 10
  4.3000
 20
  6.1000
 30
0.0
 0
SEQEND
 8
PARTS
 0
POLYLINE
 8
PARTS
 66
1
 10
0.0
 20
0.0
 30
0.0
 0
VERTEX
 8
PARTS
 10
  4.1300
 20
  6.0700
 30
0.0
 0
VERTEX
 8
PARTS
 10
  4.2700
 20
  6.0700
 30
0.0
 0
SEQEND
 8
PARTS
 0
POLYLINE
 8
PARTS
 66
1
 10
0.0
 20
0.0
 30
0.0
 0
VERTEX
 8
PARTS
 10
  4.2400
 20
  6.0400
 30
0.0
 0
VERTEX
 8
PARTS
 10
  4.1600
 20
  6.0400
 30
0.0
 0
SEQEND
 8
PARTS
 0
POLYLINE
 8
PARTS
 66
1
 10
0.0
 20
0.0
 30
0.0
 0
VERTEX
 8
PARTS
 10
  4.1900
 20
  6.0100
 30
0.0
 0
VERTEX
 8
PARTS
 10
  4.2100
 20
  6.0100
 30
0.0
 0
SEQEND
 8
PARTS
 0
ENDSEC
 0
EOF
